# xmcd
#
# Track frame offsets: 
#        150
#        18559
#        31633
#        45362
#        59995
#        83405
#        102352
#        116545
#        129713
#        141271
#        163889
#
# Disc length: 2630 seconds
#
# Revision: 0
# Processed by: cddbd v1.5.2PL0 Copyright (c) Steve Scherf et al.
# Submitted via: ExactAudioCopyFreeDBPlugin 1.0
#
DISCID=910a440b
DTITLE=The Drowsy Holler - Uva Uvum Vivendo Varia Fit
DYEAR=2009
DGENRE=Folk/Rock
TTITLE0=Aiden
TTITLE1=Irish Tonight
TTITLE2=Hot Dogs Creole
TTITLE3=Working Class Dream
TTITLE4=Little Darling
TTITLE5=Train Ride Home
TTITLE6=Guinness Song
TTITLE7=Cut Loose
TTITLE8=State Park Ranger
TTITLE9=Rest Stops
TTITLE10=Vomit And Run
EXTD=
EXTT0=
EXTT1=
EXTT2=
EXTT3=
EXTT4=
EXTT5=
EXTT6=
EXTT7=
EXTT8=
EXTT9=
EXTT10=
PLAYORDER=
